<mxfile host="app.diagrams.net" modified="2020-10-15T14:52:57.471Z" agent="5.0 (Windows NT 10.0; Win64; x64) AppleWebKit/537.36 (KHTML, like Gecko) Chrome/86.0.4240.75 Safari/537.36" etag="9xsIkt0UF2sWZPexJqnv" version="13.8.0" type="github">
  <diagram id="kgpKYQtTHZ0yAKxKKP6v" name="Page-1">
    <mxGraphModel dx="3152" dy="1154" grid="1" gridSize="10" guides="1" tooltips="1" connect="1" arrows="1" fold="1" page="1" pageScale="1" pageWidth="850" pageHeight="1100" math="0" shadow="0">
      <root>
        <mxCell id="0" />
        <mxCell id="1" parent="0" />
        <mxCell id="8bF1790MiZEt0CITywCF-1" value="" style="shape=umlLifeline;participant=umlActor;perimeter=lifelinePerimeter;whiteSpace=wrap;html=1;container=1;collapsible=0;recursiveResize=0;verticalAlign=top;spacingTop=36;outlineConnect=0;size=40;" vertex="1" parent="1">
          <mxGeometry x="-280" y="80" width="20" height="610" as="geometry" />
        </mxCell>
        <mxCell id="8bF1790MiZEt0CITywCF-6" value="CancleOrder()" style="html=1;verticalAlign=bottom;endArrow=block;" edge="1" parent="8bF1790MiZEt0CITywCF-1" target="8bF1790MiZEt0CITywCF-5">
          <mxGeometry x="0.0021" width="80" relative="1" as="geometry">
            <mxPoint x="10" y="120" as="sourcePoint" />
            <mxPoint x="90" y="120" as="targetPoint" />
            <mxPoint as="offset" />
          </mxGeometry>
        </mxCell>
        <mxCell id="8bF1790MiZEt0CITywCF-7" value="PressAddButton(menu)" style="html=1;verticalAlign=bottom;endArrow=block;" edge="1" parent="8bF1790MiZEt0CITywCF-1" target="8bF1790MiZEt0CITywCF-5">
          <mxGeometry x="0.0021" width="80" relative="1" as="geometry">
            <mxPoint x="10" y="230" as="sourcePoint" />
            <mxPoint x="90" y="230" as="targetPoint" />
            <mxPoint as="offset" />
          </mxGeometry>
        </mxCell>
        <mxCell id="8bF1790MiZEt0CITywCF-9" value="PressMinusButton(menu)" style="html=1;verticalAlign=bottom;endArrow=block;" edge="1" parent="8bF1790MiZEt0CITywCF-1" target="8bF1790MiZEt0CITywCF-5">
          <mxGeometry x="0.0021" width="80" relative="1" as="geometry">
            <mxPoint x="10" y="370" as="sourcePoint" />
            <mxPoint x="90" y="370" as="targetPoint" />
            <mxPoint as="offset" />
          </mxGeometry>
        </mxCell>
        <mxCell id="8bF1790MiZEt0CITywCF-12" value="PressDeleteButton(menu)" style="html=1;verticalAlign=bottom;endArrow=block;" edge="1" parent="8bF1790MiZEt0CITywCF-1" target="8bF1790MiZEt0CITywCF-5">
          <mxGeometry x="0.0021" width="80" relative="1" as="geometry">
            <mxPoint x="10" y="490" as="sourcePoint" />
            <mxPoint x="90" y="490" as="targetPoint" />
            <mxPoint as="offset" />
          </mxGeometry>
        </mxCell>
        <mxCell id="8bF1790MiZEt0CITywCF-21" value="" style="html=1;points=[];perimeter=orthogonalPerimeter;" vertex="1" parent="8bF1790MiZEt0CITywCF-1">
          <mxGeometry x="5" y="80" width="10" height="510" as="geometry" />
        </mxCell>
        <mxCell id="8bF1790MiZEt0CITywCF-2" value="Orderer" style="text;html=1;strokeColor=none;fillColor=none;align=center;verticalAlign=middle;whiteSpace=wrap;rounded=0;" vertex="1" parent="1">
          <mxGeometry x="-290" y="130" width="40" height="20" as="geometry" />
        </mxCell>
        <mxCell id="8bF1790MiZEt0CITywCF-5" value="Cart" style="shape=umlLifeline;perimeter=lifelinePerimeter;whiteSpace=wrap;html=1;container=1;collapsible=0;recursiveResize=0;outlineConnect=0;" vertex="1" parent="1">
          <mxGeometry x="340" y="90" width="100" height="600" as="geometry" />
        </mxCell>
        <mxCell id="8bF1790MiZEt0CITywCF-22" value="" style="html=1;points=[];perimeter=orthogonalPerimeter;" vertex="1" parent="8bF1790MiZEt0CITywCF-5">
          <mxGeometry x="45" y="60" width="10" height="520" as="geometry" />
        </mxCell>
        <mxCell id="8bF1790MiZEt0CITywCF-8" value="increase the amount of selected menu" style="html=1;verticalAlign=bottom;endArrow=open;dashed=1;endSize=8;" edge="1" parent="1" target="8bF1790MiZEt0CITywCF-1">
          <mxGeometry x="-0.0021" relative="1" as="geometry">
            <mxPoint x="390" y="370" as="sourcePoint" />
            <mxPoint x="310" y="370" as="targetPoint" />
            <mxPoint as="offset" />
          </mxGeometry>
        </mxCell>
        <mxCell id="8bF1790MiZEt0CITywCF-10" value="decrease the amount of the selected menu" style="html=1;verticalAlign=bottom;endArrow=open;dashed=1;endSize=8;" edge="1" parent="1" target="8bF1790MiZEt0CITywCF-1">
          <mxGeometry x="-0.0021" relative="1" as="geometry">
            <mxPoint x="390" y="500" as="sourcePoint" />
            <mxPoint x="310" y="500" as="targetPoint" />
            <mxPoint as="offset" />
          </mxGeometry>
        </mxCell>
        <mxCell id="8bF1790MiZEt0CITywCF-11" value="delete all&amp;nbsp; menu" style="html=1;verticalAlign=bottom;endArrow=open;dashed=1;endSize=8;" edge="1" parent="1" target="8bF1790MiZEt0CITywCF-1">
          <mxGeometry x="-0.0021" relative="1" as="geometry">
            <mxPoint x="390" y="240" as="sourcePoint" />
            <mxPoint x="310" y="240" as="targetPoint" />
            <mxPoint as="offset" />
          </mxGeometry>
        </mxCell>
        <mxCell id="8bF1790MiZEt0CITywCF-13" value="delete selected menu" style="html=1;verticalAlign=bottom;endArrow=open;dashed=1;endSize=8;" edge="1" parent="1" target="8bF1790MiZEt0CITywCF-1">
          <mxGeometry x="-0.0021" relative="1" as="geometry">
            <mxPoint x="390" y="620" as="sourcePoint" />
            <mxPoint x="310" y="620" as="targetPoint" />
            <mxPoint as="offset" />
          </mxGeometry>
        </mxCell>
        <mxCell id="8bF1790MiZEt0CITywCF-14" value="[If order wants to cancle order]" style="text;html=1;strokeColor=none;fillColor=none;align=center;verticalAlign=middle;whiteSpace=wrap;rounded=0;" vertex="1" parent="1">
          <mxGeometry x="-270" y="170" width="180" height="20" as="geometry" />
        </mxCell>
        <mxCell id="8bF1790MiZEt0CITywCF-15" value="[If orderer wants to add selected menu]" style="text;html=1;strokeColor=none;fillColor=none;align=center;verticalAlign=middle;whiteSpace=wrap;rounded=0;" vertex="1" parent="1">
          <mxGeometry x="-270" y="280" width="230" height="20" as="geometry" />
        </mxCell>
        <mxCell id="8bF1790MiZEt0CITywCF-16" value="[If orderer wants to subtract selected menu]" style="text;html=1;strokeColor=none;fillColor=none;align=center;verticalAlign=middle;whiteSpace=wrap;rounded=0;" vertex="1" parent="1">
          <mxGeometry x="-260" y="420" width="240" height="20" as="geometry" />
        </mxCell>
        <mxCell id="8bF1790MiZEt0CITywCF-17" value="[If orderer wants to delete selected menu]" style="text;html=1;strokeColor=none;fillColor=none;align=center;verticalAlign=middle;whiteSpace=wrap;rounded=0;" vertex="1" parent="1">
          <mxGeometry x="-260" y="530" width="240" height="20" as="geometry" />
        </mxCell>
        <mxCell id="8bF1790MiZEt0CITywCF-20" value="sd manage cart use case" style="shape=umlFrame;whiteSpace=wrap;html=1;width=60;height=30;" vertex="1" parent="1">
          <mxGeometry x="-350" y="50" width="850" height="660" as="geometry" />
        </mxCell>
      </root>
    </mxGraphModel>
  </diagram>
</mxfile>
